<svg xmlns="http://www.w3.org/2000/svg" baseProfile="tiny" width="280" height="280" xmlnsV="https://vecta.io/nano"><path d="M196 136.64v13.44 12.04 45.92h11.2v-45.92-12.04-13.44zM207.2 19.6a5.62 5.62 0 0 0-5.601-5.6H67.2a5.62 5.62 0 0 0-5.6 5.6v235.2h-28a5.62 5.62 0 0 0-5.6 5.601 5.62 5.62 0 0 0 5.6 5.6h67.2a5.62 5.62 0 0 0 5.6-5.6 5.62 5.62 0 0 0-5.6-5.601h-28V77.84l52.64-52.64H196v45.3h11.2V19.6zM72.8 62.16V25.2h36.96L72.8 62.16z"/><path d="M201.6 137.125a33.58 33.58 0 0 0 5.601-.476v-.009c6.93-1.216 13.118-4.492 17.905-9.161.041-.041.086-.08.127-.121.061-.06.117-.122.177-.182 5.977-6.047 9.67-14.356 9.67-23.53 0-16.901-12.526-30.869-28.8-33.146h-9.359c-16.272 2.277-28.799 16.245-28.799 33.146 0 16.084 11.344 29.513 26.465 32.737a32.9 32.9 0 0 0 1.414.257v.01c1.821.307 3.689.475 5.599.475zM179.2 103.6c0-12.32 10.079-22.4 22.399-22.4S224 91.28 224 103.6 213.92 126 201.6 126s-22.4-10.08-22.4-22.4z"/></svg>