<svg xmlns="http://www.w3.org/2000/svg" viewBox="0 0 100 100" xmlnsV="https://vecta.io/nano"><path d="M88.7 59.1L74 53.6v-4.8c5.7-1 10-5.9 10-11.8s-4.3-10.9-10-11.8V7c0-1.1-.9-2-2-2H24c-1.1 0-2 .9-2 2v84H12c-1.1 0-2 .9-2 2s.9 2 2 2h24c1.1 0 2-.9 2-2s-.9-2-2-2H26V27.8L44.8 9H70v16.2c-5.7 1-10 5.9-10 11.8s4.3 10.9 10 11.8v4.8l-14.7 5.5c-1 .4-1.6 1.5-1.2 2.6.3.8 1.1 1.3 1.9 1.3.2 0 .5 0 .7-.1l13.3-5v16.4l-9.5 11.4c-.7.8-.6 2.1.3 2.8.4.3.8.5 1.3.5.6 0 1.1-.2 1.5-.7L72 78.1l8.5 10.2c.4.5 1 .7 1.5.7s.9-.2 1.3-.5c.8-.7 1-2 .3-2.8L74 74.3V57.9l13.3 5c.2.1.5.1.7.1.8 0 1.6-.5 1.9-1.3.4-1-.2-2.2-1.2-2.6zM26 22.2V9h13.2L26 22.2zM64 37c0-4.4 3.6-8 8-8s8 3.6 8 8-3.6 8-8 8-8-3.6-8-8z"/></svg>